<?xml version="1.0" encoding="UTF-8"?>
<svg id="Layer_1" data-name="Layer 1" xmlns="http://www.w3.org/2000/svg" viewBox="0 0 276.06 44.41">
  <defs>
    <style>
      .cls-1 {
        fill: #6c63ff;
      }

      .cls-1, .cls-2 {
        stroke-width: 0px;
      }

      .cls-2 {
        fill: #282828;
      }
    </style>
  </defs>
  <path class="cls-1" d="M0,20.86c0-6.99,1.81-12.22,5.43-15.67C9.06,1.73,13.89,0,19.92,0c5.59,0,10.04,1.42,13.36,4.25,3.32,2.83,4.98,6.6,4.98,11.31v.97h-11.37v-1.17c0-2.46-.59-4.25-1.76-5.36s-2.96-1.67-5.36-1.67-4.51.79-5.96,2.37c-1.46,1.58-2.18,4.43-2.18,8.55v5.86c0,3.83.7,6.61,2.09,8.35,1.4,1.74,3.48,2.61,6.25,2.61,2.32,0,4.05-.62,5.17-1.86,1.12-1.24,1.7-3,1.74-5.29v-1.05h11.37v1.05c-.08,4.63-1.76,8.36-5.04,11.19-3.28,2.83-7.72,4.25-13.3,4.25-6.07,0-10.91-1.75-14.52-5.26C1.8,35.59,0,30.39,0,23.5v-2.64Z"/>
  <path class="cls-2" d="M41.16,27.54c0-5.02,1.57-8.93,4.72-11.72,3.14-2.79,7.18-4.19,12.1-4.19s8.96,1.4,12.11,4.19c3.15,2.79,4.73,6.7,4.73,11.72v.94c0,5-1.58,8.9-4.73,11.7-3.15,2.8-7.19,4.2-12.11,4.2s-8.96-1.4-12.1-4.2c-3.15-2.8-4.72-6.7-4.72-11.7v-.94ZM52.29,29.27c0,2.68.51,4.53,1.54,5.55s2.41,1.54,4.15,1.54,3.14-.51,4.16-1.54c1.02-1.03,1.52-2.88,1.52-5.55v-2.55c0-2.66-.53-4.49-1.58-5.51-1.05-1.02-2.42-1.52-4.1-1.52s-3.05.51-4.1,1.52c-1.05,1.02-1.58,2.85-1.58,5.51v2.55ZM80.19,12.54h10.49l.15,3.16h.18c.57-1.05,1.63-1.95,3.18-2.7,1.55-.74,3.26-1.11,5.11-1.11,3.22,0,5.89.91,8.01,2.72,2.12,1.82,3.18,5.13,3.18,9.93v18.96h-10.87v-19.39c0-1.56-.33-2.64-.98-3.22-.65-.59-1.58-.88-2.77-.88-.94,0-1.87.28-2.78.85-.92.57-1.59,1.43-2.02,2.58v20.07h-10.87V12.54ZM117.1,12.54h10.49l.15,3.16h.18c.57-1.05,1.63-1.95,3.18-2.7,1.55-.74,3.26-1.11,5.11-1.11,3.22,0,5.89.91,8.01,2.72,2.12,1.82,3.18,5.13,3.18,9.93v18.96h-10.87v-19.39c0-1.56-.33-2.64-.98-3.22-.65-.59-1.58-.88-2.77-.88-.94,0-1.87.28-2.78.85-.92.57-1.59,1.43-2.02,2.58v20.07h-10.87V12.54ZM152.46,27.54c0-4.86,1.55-8.73,4.64-11.6,3.1-2.87,6.97-4.31,11.62-4.31s8.45,1.35,11.22,4.04c2.77,2.7,4.16,6.48,4.16,11.37v3.69h-23.99v-6.12h13.27v-.67c.02-1.37-.4-2.51-1.25-3.43-.85-.92-2.05-1.38-3.59-1.38-1.7,0-3.02.63-3.96,1.88-.94,1.25-1.41,3.16-1.41,5.74v2.46c0,2.48.51,4.34,1.54,5.58,1.03,1.24,2.48,1.86,4.35,1.86,1.45,0,2.71-.4,3.79-1.2,1.08-.8,1.96-1.7,2.62-2.7l7.82,4.86c-.98,2.13-2.72,3.79-5.24,5-2.52,1.2-5.43,1.8-8.73,1.8-5.14,0-9.23-1.44-12.29-4.32-3.06-2.88-4.58-6.75-4.58-11.62v-.94ZM187.32,27.54c0-5.02,1.54-8.93,4.63-11.72,3.09-2.79,7.1-4.19,12.04-4.19s8.37,1.13,10.87,3.38c2.5,2.26,3.89,5.03,4.16,8.33l.09.76h-10.63v-.53c0-1.29-.4-2.3-1.2-3.05-.8-.74-1.93-1.11-3.4-1.11-1.74,0-3.08.61-4.01,1.83-.94,1.22-1.41,3.04-1.41,5.46v2.55c0,2.44.44,4.28,1.33,5.51.89,1.23,2.24,1.85,4.06,1.85s2.99-.43,3.65-1.29c.65-.86.98-1.85.98-2.96v-.44h10.58v.5c0,3.28-1.32,6.09-3.96,8.44s-6.34,3.52-11.1,3.52-8.93-1.4-12.03-4.19c-3.1-2.79-4.64-6.7-4.64-11.72v-.94ZM220.05,12.54h19.98v7.79h-19.98v-7.79ZM224.03,16.35l.06-.82V5.48h10.78v27.48c0,1.43.25,2.38.75,2.87.5.49,1.14.73,1.92.73.37,0,.76-.05,1.16-.16.4-.11.77-.23,1.1-.37v7.41c-.41.23-1.04.44-1.88.63-.84.19-1.74.28-2.7.28-3.34,0-6.04-.89-8.1-2.68-2.06-1.79-3.09-4.59-3.09-8.42v-16.9ZM242.4,27.54c0-5.02,1.57-8.93,4.72-11.72,3.14-2.79,7.18-4.19,12.1-4.19s8.96,1.4,12.11,4.19c3.15,2.79,4.73,6.7,4.73,11.72v.94c0,5-1.58,8.9-4.73,11.7-3.15,2.8-7.19,4.2-12.11,4.2s-8.96-1.4-12.1-4.2c-3.15-2.8-4.72-6.7-4.72-11.7v-.94ZM253.54,29.27c0,2.68.51,4.53,1.54,5.55s2.41,1.54,4.15,1.54,3.14-.51,4.16-1.54c1.02-1.03,1.52-2.88,1.52-5.55v-2.55c0-2.66-.53-4.49-1.58-5.51-1.05-1.02-2.42-1.52-4.1-1.52s-3.05.51-4.1,1.52c-1.05,1.02-1.58,2.85-1.58,5.51v2.55Z"/>
</svg>